<svg xmlns="http://www.w3.org/2000/svg" viewBox="0 0 320 320">
<defs>
  <filter id="smokeB4">
    <feTurbulence type="fractalNoise" baseFrequency="0.01 0.016" numOctaves="3" seed="9" result="n"/>
    <feDisplacementMap in="SourceGraphic" in2="n" scale="20"/>
  </filter>
  <radialGradient id="haloB4" cx="0.5" cy="0.5" r="0.5">
    <stop offset="0" stop-color="#a97bff" stop-opacity="0.5"/>
    <stop offset="1" stop-color="#a97bff" stop-opacity="0"/>
  </radialGradient>
  <linearGradient id="bladeFillB4" x1="0" y1="0" x2="1" y2="1">
    <stop offset="0" stop-color="#5f84a8"/>
    <stop offset="1" stop-color="#1c2b3c"/>
  </linearGradient>
  <radialGradient id="bookHaloB4" cx="0.5" cy="0.5" r="0.5">
    <stop offset="0" stop-color="#d9c6ff" stop-opacity="0.75"/>
    <stop offset="1" stop-color="#8a6ad0" stop-opacity="0"/>
  </radialGradient>
  <filter id="glowB4" x="-100%" y="-100%" width="300%" height="300%">
    <feGaussianBlur stdDeviation="2.6" result="b"/>
    <feMerge><feMergeNode in="b"/><feMergeNode in="SourceGraphic"/></feMerge>
  </filter>
  <filter id="bookGlowStrong4" x="-140%" y="-140%" width="380%" height="380%">
    <feGaussianBlur stdDeviation="4.5" result="b"/>
    <feMerge><feMergeNode in="b"/><feMergeNode in="b"/><feMergeNode in="SourceGraphic"/></feMerge>
  </filter>
  <radialGradient id="vigB4" cx="0.5" cy="0.42" r="0.8">
    <stop offset="0" stop-color="#000" stop-opacity="0"/>
    <stop offset="1" stop-color="#000" stop-opacity="0.93"/>
  </radialGradient>
</defs>

<rect width="320" height="320" fill="#050608"/>

<g filter="url(#smokeB4)" opacity="0.4">
  <ellipse cx="160" cy="150" rx="120" ry="80" fill="#161022"/>
</g>

<g opacity="0.95">
  <polygon points="96.0,68.0 126.9,103.2 160.0,139.4 149.8,147.4 122.6,106.6" fill="url(#bladeFillB4)" stroke="#9fc8ec" stroke-width="0.8"/><path d="M154.9,143.4 L96.0,68.0" fill="none" stroke="#9fc8ec" stroke-width="0.6" opacity="0.7"/><path d="M169.7,142.4 L150.3,157.6" stroke="#9fc8ec" stroke-width="2.4" stroke-linecap="round"/><path d="M160.0,150.0 L175.4,169.7" stroke="#0c141e" stroke-width="3.2" stroke-linecap="round"/><circle cx="177.3" cy="172.1" r="2.6" fill="#9fc8ec" opacity="0.8"/>
  <polygon points="224.0,68.0 197.4,106.6 170.2,147.4 160.0,139.4 193.1,103.2" fill="url(#bladeFillB4)" stroke="#9fc8ec" stroke-width="0.8"/><path d="M165.1,143.4 L224.0,68.0" fill="none" stroke="#9fc8ec" stroke-width="0.6" opacity="0.7"/><path d="M169.7,157.6 L150.3,142.4" stroke="#9fc8ec" stroke-width="2.4" stroke-linecap="round"/><path d="M160.0,150.0 L144.6,169.7" stroke="#0c141e" stroke-width="3.2" stroke-linecap="round"/><circle cx="142.7" cy="172.1" r="2.6" fill="#9fc8ec" opacity="0.8"/>
</g>

<circle cx="160" cy="118" r="74" fill="url(#haloB4)"/>
<circle cx="160" cy="118" r="60" fill="none" stroke="#b28bff" stroke-width="1.2" opacity="0.8" filter="url(#glowB4)"/>
<circle cx="160" cy="118" r="46" fill="none" stroke="#8a6ad0" stroke-width="1" opacity="0.6"/>
<line x1="211.0" y1="118.0" x2="220.0" y2="118.0" stroke="#b28bff" stroke-width="1.4"/><line x1="207.1" y1="137.5" x2="215.4" y2="141.0" stroke="#b28bff" stroke-width="1.4"/><line x1="196.1" y1="154.1" x2="202.4" y2="160.4" stroke="#b28bff" stroke-width="1.4"/><line x1="179.5" y1="165.1" x2="183.0" y2="173.4" stroke="#b28bff" stroke-width="1.4"/><line x1="160.0" y1="169.0" x2="160.0" y2="178.0" stroke="#b28bff" stroke-width="1.4"/><line x1="140.5" y1="165.1" x2="137.0" y2="173.4" stroke="#b28bff" stroke-width="1.4"/><line x1="123.9" y1="154.1" x2="117.6" y2="160.4" stroke="#b28bff" stroke-width="1.4"/><line x1="112.9" y1="137.5" x2="104.6" y2="141.0" stroke="#b28bff" stroke-width="1.4"/><line x1="109.0" y1="118.0" x2="100.0" y2="118.0" stroke="#b28bff" stroke-width="1.4"/><line x1="112.9" y1="98.5" x2="104.6" y2="95.0" stroke="#b28bff" stroke-width="1.4"/><line x1="123.9" y1="81.9" x2="117.6" y2="75.6" stroke="#b28bff" stroke-width="1.4"/><line x1="140.5" y1="70.9" x2="137.0" y2="62.6" stroke="#b28bff" stroke-width="1.4"/><line x1="160.0" y1="67.0" x2="160.0" y2="58.0" stroke="#b28bff" stroke-width="1.4"/><line x1="179.5" y1="70.9" x2="183.0" y2="62.6" stroke="#b28bff" stroke-width="1.4"/><line x1="196.1" y1="81.9" x2="202.4" y2="75.6" stroke="#b28bff" stroke-width="1.4"/><line x1="207.1" y1="98.5" x2="215.4" y2="95.0" stroke="#b28bff" stroke-width="1.4"/>
<circle cx="160" cy="118" r="5.5" fill="#e6dcff" filter="url(#glowB4)"/>

<circle cx="160" cy="252" r="70" fill="url(#bookHaloB4)"/>
<g filter="url(#bookGlowStrong4)">
  <path d="M100,266 L100,224 L156,210 L156,252 Z" fill="#0e0a18" stroke="#9b7fe0" stroke-width="1"/>
  <path d="M220,266 L220,224 L164,210 L164,252 Z" fill="#0e0a18" stroke="#9b7fe0" stroke-width="1"/>
  <path d="M102,262 L102,222 L154,209" fill="none" stroke="#6a4fae" stroke-width="0.6" opacity="0.6"/>
  <path d="M106,258 L106,218 L154,206" fill="none" stroke="#6a4fae" stroke-width="0.6" opacity="0.5"/>
  <path d="M218,262 L218,222 L166,209" fill="none" stroke="#6a4fae" stroke-width="0.6" opacity="0.6"/>
  <path d="M214,258 L214,218 L166,206" fill="none" stroke="#6a4fae" stroke-width="0.6" opacity="0.5"/>
  <line x1="160" y1="206" x2="160" y2="252" stroke="#c9b8ff" stroke-width="1.2"/>
  <circle cx="129" cy="237" r="10" fill="none" stroke="#e6dcff" stroke-width="1"/>
  <line x1="129" y1="227" x2="129" y2="247" stroke="#e6dcff" stroke-width="0.8"/>
  <line x1="119" y1="237" x2="139" y2="237" stroke="#e6dcff" stroke-width="0.8"/>
  <circle cx="189" cy="237" r="10" fill="none" stroke="#e6dcff" stroke-width="1"/>
  <path d="M183,232 L195,242 M195,232 L183,242" stroke="#e6dcff" stroke-width="0.8"/>
</g>

<circle cx="147.6" cy="174.0" r="0.82" fill="#d9c6ff" opacity="0.76"/><circle cx="168.1" cy="221.8" r="1.32" fill="#d9c6ff" opacity="0.49"/><circle cx="184.1" cy="209.9" r="1.62" fill="#d9c6ff" opacity="0.63"/><circle cx="195.3" cy="195.7" r="0.80" fill="#d9c6ff" opacity="0.37"/><circle cx="183.2" cy="167.4" r="1.45" fill="#d9c6ff" opacity="0.61"/><circle cx="114.2" cy="231.6" r="0.64" fill="#d9c6ff" opacity="0.73"/><circle cx="195.5" cy="172.5" r="1.54" fill="#d9c6ff" opacity="0.67"/><circle cx="121.0" cy="219.7" r="0.76" fill="#d9c6ff" opacity="0.76"/><circle cx="179.6" cy="251.9" r="0.67" fill="#d9c6ff" opacity="0.46"/><circle cx="172.5" cy="213.3" r="0.84" fill="#d9c6ff" opacity="0.74"/><circle cx="196.0" cy="181.3" r="0.79" fill="#d9c6ff" opacity="0.63"/><circle cx="150.3" cy="219.0" r="1.24" fill="#d9c6ff" opacity="0.50"/><circle cx="110.3" cy="164.0" r="1.20" fill="#d9c6ff" opacity="0.66"/><circle cx="152.3" cy="227.4" r="1.30" fill="#d9c6ff" opacity="0.74"/><circle cx="176.1" cy="183.5" r="0.78" fill="#d9c6ff" opacity="0.33"/><circle cx="112.1" cy="239.7" r="1.74" fill="#d9c6ff" opacity="0.68"/><circle cx="119.4" cy="218.7" r="0.77" fill="#d9c6ff" opacity="0.74"/><circle cx="176.2" cy="228.0" r="1.39" fill="#d9c6ff" opacity="0.51"/><circle cx="196.2" cy="250.0" r="0.91" fill="#d9c6ff" opacity="0.52"/><circle cx="184.3" cy="220.7" r="1.13" fill="#d9c6ff" opacity="0.53"/><circle cx="208.6" cy="178.7" r="0.87" fill="#d9c6ff" opacity="0.64"/><circle cx="136.8" cy="243.3" r="1.02" fill="#d9c6ff" opacity="0.76"/><circle cx="147.5" cy="242.1" r="1.58" fill="#d9c6ff" opacity="0.67"/><circle cx="130.3" cy="167.1" r="0.64" fill="#d9c6ff" opacity="0.39"/><circle cx="177.3" cy="156.7" r="0.91" fill="#d9c6ff" opacity="0.58"/><circle cx="124.1" cy="184.2" r="0.90" fill="#d9c6ff" opacity="0.64"/>

<rect width="320" height="320" fill="url(#vigB4)"/>
</svg>